<svg width="417" height="584" viewBox="0 0 417 584" fill="none" xmlns="http://www.w3.org/2000/svg">
<path d="M65.4569 67.1157L60.0518 57.2425C55.4105 48.7781 59.8168 40.8303 66.6437 37.097C73.4705 33.3638 82.5417 33.939 87.183 42.4034L92.5881 52.2766C97.2294 60.741 92.8231 68.6889 85.9962 72.4221C79.1576 76.1554 70.0982 75.5801 65.4569 67.1157ZM85.5145 56.139L80.1094 46.2658C77.9826 42.3917 73.7408 41.7577 70.251 43.6713C66.7612 45.5849 64.9516 49.5177 67.0784 53.3919L72.4835 63.2651C74.6103 67.1392 78.8991 67.7379 82.3889 65.8361C85.8787 63.9342 87.6295 60.0131 85.5145 56.139Z" fill="#EF4423"/>
<path d="M86.384 27.5056L111.424 17.562L113.668 23.1971L113.292 58.9683L105.384 62.1028L106.136 27.2473L88.9926 34.0564L86.384 27.5056Z" fill="#EF4423"/>
<path d="M134.912 8.40491L134.36 59.1796L127.78 61.0815L128.332 10.3068L134.912 8.40491Z" fill="#EF4423"/>
<path d="M144.994 33.9155L143.055 22.8331C141.387 13.3239 148.108 7.21918 155.781 5.88084C163.454 4.5425 171.855 8.00575 173.512 17.515L175.45 28.5974C177.119 38.1066 170.398 44.2114 162.725 45.5497C155.052 46.888 146.651 43.4248 144.994 33.9155ZM167.507 29.9827L165.569 18.9003C164.805 14.5566 160.986 12.5843 157.073 13.2769C153.16 13.9578 150.176 17.1158 150.94 21.4596L152.878 32.542C153.642 36.8857 157.52 38.8463 161.432 38.1653C165.345 37.4844 168.271 34.3264 167.507 29.9827Z" fill="#EF4423"/>
<path d="M180.656 42.2508L180.268 35.1952L188.434 34.749L187.165 11.4925L179.375 13.7935L178.976 6.57349L194.674 2.22976L196.425 34.3029L204.532 33.8568L204.92 40.9125L180.656 42.2508Z" fill="#EF4423"/>
<path d="M227.563 0.421829L211.159 48.4846L204.321 48.2381L220.724 0.175293L227.563 0.421829Z" fill="#EF4423"/>
<path d="M254.905 37.9188L253.895 45.3501L226.693 41.6638L227.398 36.4748C229.337 22.2109 248.525 24.9228 249.606 16.9398C249.958 14.31 248.349 11.8682 244.847 11.3986C241.569 10.9524 238.925 12.7721 238.267 15.9653L230.336 14.8853C231.287 7.88835 237.903 3.09851 246.057 4.21379C253.166 5.17646 258.607 10.3185 257.537 18.1842C255.798 30.9806 239.325 28.4096 235.929 35.3595L254.905 37.9188Z" fill="white"/>
<path d="M260.463 32.3424L263.389 21.4713C265.904 12.1499 274.575 9.44975 282.095 11.469C289.615 13.4882 295.761 20.1682 293.258 29.4896L290.332 40.3607C287.818 49.6821 279.146 52.3823 271.626 50.363C264.106 48.3438 257.949 41.6638 260.463 32.3424ZM282.542 38.271L285.468 27.3999C286.619 23.1384 283.987 19.7456 280.145 18.7125C276.302 17.6794 272.272 19.276 271.121 23.5493L268.195 34.4203C267.043 38.6819 269.734 42.0864 273.576 43.1195C277.407 44.1526 281.39 42.5326 282.542 38.271Z" fill="white"/>
<path d="M317.546 58.3578L314.679 65.2961L289.298 54.8476L291.296 49.9991C296.795 36.6861 314.667 44.1644 317.745 36.7213C318.756 34.2677 317.816 31.4971 314.538 30.147C311.471 28.8791 308.463 29.971 307.006 32.8942L299.603 29.8418C302.294 23.3145 309.908 20.356 317.522 23.4906C324.161 26.2259 328.109 32.5654 325.077 39.9146C320.154 51.854 304.855 45.1975 299.815 51.0557L317.546 58.3578Z" fill="white"/>
<path d="M344.548 73.2204L340.881 79.7713L316.935 66.3761L319.496 61.7976C326.534 49.236 343.396 58.7922 347.332 51.7718C348.625 49.459 348.026 46.5945 344.935 44.8688C342.045 43.2487 338.919 43.9648 337.133 46.7002L330.142 42.7908C333.596 36.6274 341.504 34.6082 348.684 38.6232C354.946 42.1334 358.119 48.8955 354.23 55.822C347.92 67.0805 333.526 58.6513 327.815 63.8755L344.548 73.2204Z" fill="white"/>
<path d="M37.0449 499.54L15.5656 512.994L11.3355 509.085C17.0109 498.66 19.1259 494.938 20.8532 492.684C18.6794 494.621 15.1191 496.946 5.0374 503.262L0.913086 499.446L12.7338 477.058L16.5996 480.639C10.9478 490.9 8.50371 495.161 6.87043 497.591C9.25572 495.525 13.1333 492.966 22.9799 486.532L26.975 490.23C21.6757 500.057 19.2316 504.424 17.5866 506.854C19.9484 504.905 23.873 502.252 33.3201 496.112L37.0449 499.54Z" fill="white"/>
<path d="M48.5014 513.499L39.9472 506.983L36.6689 511.28L43.719 516.645L41.04 520.155L33.9899 514.79L30.5823 519.251L39.1365 525.767L36.3987 529.359L23.873 519.827L38.7017 500.374L51.2274 509.906L48.5014 513.499Z" fill="white"/>
<path d="M85.9375 531.308L67.8774 549.07L62.9071 546.171C66.1854 534.771 67.4544 530.686 68.6412 528.115C66.9374 530.475 63.9646 533.515 55.4927 541.85L50.6399 539.021L57.3375 514.614L61.8848 517.267C58.583 528.502 57.1143 533.186 56.045 535.91C57.925 533.374 61.1563 530.04 69.3815 521.646L74.0815 524.393C71.0265 535.135 69.593 539.913 68.512 542.637C70.4037 540.23 73.6468 536.791 81.5429 528.761L85.9375 531.308Z" fill="white"/>
<path d="M77.3011 553.766L87.9468 531.754L92.4471 533.926L81.8014 555.938L77.3011 553.766Z" fill="white"/>
<path d="M86.713 558.286L96.2072 535.757L100.813 537.695L93.0699 556.067L102.505 560.035L100.754 564.191L86.713 558.286Z" fill="white"/>
<path d="M104.902 565.729L112.845 542.602L117.569 544.222L111.095 563.076L120.777 566.398L119.308 570.66L104.902 565.729Z" fill="white"/>
<path d="M130.964 574.065L136.522 550.256L145.722 552.405C150.787 553.59 153.219 556.349 152.326 560.2C151.645 563.123 149.776 564.274 148.049 564.438C150.552 565.518 151.856 568.3 151.163 571.247C150.211 575.344 146.51 577.692 140.764 576.354L130.964 574.065ZM136.804 571.036L141.739 572.186C144.089 572.738 145.852 571.869 146.287 569.991C146.745 568.007 145.558 566.422 143.278 565.894L138.273 564.731L136.804 571.036ZM139.131 561.045L143.466 562.055C145.311 562.489 146.768 561.867 147.191 560.024C147.614 558.216 146.592 556.983 144.747 556.549L140.411 555.539L139.131 561.045Z" fill="white"/>
<path d="M172.619 561.867L161.997 560.223L161.174 565.565L169.928 566.915L169.258 571.27L160.504 569.92L159.646 575.462L170.269 577.105L169.575 581.566L154.018 579.16L157.766 555.011L173.324 557.417L172.619 561.867Z" fill="white"/>
<path d="M181.408 582.693L183.253 558.31L188.235 558.685L186.39 583.069L181.408 582.693Z" fill="white"/>
<path d="M213.392 559.437L212.992 583.879L208.339 583.809L196.824 567.161C197 569.263 196.965 573.325 196.801 583.621L191.901 583.539L192.3 559.096L196.953 559.167L208.504 575.99C208.292 573.853 208.363 569.791 208.527 559.354L213.392 559.437Z" fill="white"/>
<path d="M226.529 583.175L224.108 558.85L233.508 557.922C238.69 557.406 241.886 559.237 242.274 563.182C242.568 566.164 241.181 567.854 239.583 568.57C242.309 568.782 244.436 571 244.73 574.006C245.141 578.185 242.403 581.613 236.54 582.188L226.529 583.175ZM230.065 568.218L234.495 567.784C236.387 567.596 237.562 566.551 237.374 564.661C237.186 562.806 235.823 561.972 233.943 562.16L229.513 562.595L230.065 568.218ZM231.076 578.432L236.117 577.927C238.514 577.692 239.9 576.307 239.712 574.381C239.513 572.362 237.879 571.247 235.541 571.47L230.43 571.975L231.076 578.432Z" fill="white"/>
<path d="M265.621 577.774L262.848 572.82L253.836 574.475C253.589 576.166 253.331 577.997 253.049 580.087L247.961 581.026L252.167 555.398L257.761 554.365L270.933 576.8L265.621 577.774ZM260.745 569.04C256.903 562.043 255.881 559.953 255.399 558.263C255.587 560.012 255.422 562.36 254.412 570.202L260.745 569.04Z" fill="white"/>
<path d="M287.606 572.28L276.843 564.45C277.513 565.835 278.347 568.899 279.863 574.405L275.045 575.732L268.571 552.146L278.241 549.493C283.388 548.084 287.312 549.857 288.581 554.482C290.027 559.73 286.384 562.876 283.282 563.827C284.904 564.814 287.641 566.704 293.493 570.672L287.606 572.28ZM279.099 553.942L274.575 555.187L276.443 561.996L280.967 560.752C283.458 560.071 284.445 558.333 283.87 556.243C283.329 554.212 281.602 553.262 279.099 553.942Z" fill="white"/>
<path d="M292.694 558.098C290.25 551.407 293.505 544.433 299.92 542.097C303.551 540.77 306.242 541.228 307.323 541.569L308.991 546.124C308.134 545.666 305.502 544.903 302.071 546.147C298.017 547.615 295.784 551.947 297.406 556.384C299.027 560.822 303.528 562.7 307.57 561.221C311.001 559.977 312.505 557.664 312.893 556.795L314.561 561.35C313.95 562.301 312.176 564.379 308.557 565.706C302.118 568.042 295.138 564.79 292.694 558.098Z" fill="white"/>
<path d="M325.912 536.286L316.112 540.723L318.345 545.642L326.417 541.991L328.238 546.006L320.166 549.657L322.481 554.776L332.28 550.338L334.137 554.447L319.79 560.939L309.696 538.669L324.043 532.177L325.912 536.286Z" fill="white"/>
<path d="M338.238 552.369L326.628 530.85L331.023 528.479L340.494 546.03L349.506 541.181L351.645 545.149L338.238 552.369Z" fill="white"/>
<path d="M347.849 533.41C343.89 527.317 345.417 520.003 351.492 516.058C357.567 512.125 364.875 513.698 368.835 519.791C372.795 525.884 371.267 533.198 365.193 537.143C359.13 541.076 351.809 539.502 347.849 533.41ZM364.64 522.515C362.279 518.876 357.767 517.573 354.042 519.991C350.34 522.386 349.671 527.058 352.044 530.698C354.406 534.337 358.942 535.628 362.643 533.222C366.368 530.792 367.014 526.154 364.64 522.515Z" fill="white"/>
<path d="M380.762 494.786L396.002 513.91L392.359 516.809L372.877 511.268C374.346 512.783 376.908 515.941 383.323 523.994L379.493 527.035L364.253 507.911L367.895 505.011L387.506 510.669C385.99 509.155 383.452 505.974 376.955 497.803L380.762 494.786Z" fill="white"/>
<path d="M412.323 498.671L407.294 496.053L400.666 502.381C401.383 503.931 402.182 505.61 403.087 507.5L399.35 511.069L388.799 487.331L392.911 483.41L416.247 494.938L412.323 498.671ZM403.451 494.046C396.389 490.313 394.404 489.115 393.064 487.965C394.18 489.327 395.332 491.381 398.798 498.495L403.451 494.046Z" fill="white"/>
</svg>
